<svg version="1.1" id="Layer_1" xmlns="http://www.w3.org/2000/svg" xmlns:xlink="http://www.w3.org/1999/xlink" x="0px" y="0px"
	 width="100%" viewBox="0 0 700 400" enable-background="new 0 0 496 496" xml:space="preserve">
<path fill="#2CB1BC" opacity="1.000000" stroke="none" 
	d="
M497.000000,349.531342 
	C460.350189,350.002106 423.700348,350.004333 387.050537,350.005707 
	C386.050995,350.005737 385.048126,350.046997 384.052582,349.981476 
	C381.780762,349.831940 378.936066,350.269104 378.987457,346.761444 
	C379.039978,343.177338 381.966156,343.783478 384.177307,343.780762 
	C417.828827,343.739532 451.480347,343.747162 485.131897,343.735687 
	C491.981171,343.733337 491.985565,343.718811 491.986542,336.769928 
	C491.991180,303.451599 491.979614,270.133240 492.020844,236.814957 
	C492.024353,233.979660 491.128906,230.282639 496.580261,230.900299 
	C497.000000,270.354218 497.000000,309.708466 497.000000,349.531342 
z"/>
<path fill="#2CB1BC" opacity="1.000000" stroke="none" 
	d="
M1.000000,125.416664 
	C2.836293,123.486534 5.037534,123.673767 7.196953,123.673668 
	C43.152004,123.671974 79.107056,123.670799 115.062111,123.672928 
	C116.060509,123.672989 117.059334,123.698799 118.057213,123.733940 
	C119.859146,123.797401 120.857536,124.683418 120.750534,126.544617 
	C120.648087,128.326645 119.666481,129.256531 117.860306,129.275101 
	C116.362450,129.290512 114.864616,129.320816 113.366768,129.320862 
	C80.241508,129.321930 47.116253,129.315338 13.990998,129.321732 
	C7.373777,129.323013 7.354175,129.344742 7.352520,135.961472 
	C7.344070,169.752563 7.286580,203.543884 7.418570,237.334457 
	C7.435746,241.731903 6.411743,243.766891 1.385244,242.074509 
	C1.000000,239.958328 1.000000,237.916672 1.105761,235.043396 
	C1.368090,232.900391 1.660067,231.589142 1.661397,230.277603 
	C1.693465,198.654221 1.705974,167.030807 1.671112,135.407455 
	C1.669124,133.604721 1.233699,131.802475 1.000000,130.000000 
	C1.000000,128.611115 1.000000,127.222221 1.000000,125.416664 
z"/>
<path fill="#000" opacity="1.000000" stroke="none" 
	d="
M383.441559,292.476685 
	C383.028381,270.398834 383.183136,248.761581 383.282684,227.121933 
	C383.341553,214.320969 383.463562,201.516037 383.388153,188.715042 
	C383.366364,185.017273 383.476044,182.662994 388.168274,182.719101 
	C395.743774,182.809677 396.197266,182.869308 396.220978,188.645096 
	C396.263214,198.924271 396.232849,209.203735 396.232849,220.228165 
	C400.781647,218.139969 404.331970,215.719940 408.443726,214.432541 
	C430.940430,207.388702 454.540039,221.838257 458.268768,245.093475 
	C460.645050,259.913910 458.670807,273.735107 447.908752,285.018616 
	C436.031860,297.471039 415.964996,300.129364 400.972321,291.681549 
	C399.824188,291.034607 398.663574,290.409760 397.510773,289.775757 
	C394.712524,294.800690 389.230804,295.980774 383.441559,292.476685 
M438.036224,277.529144 
	C445.292816,269.386963 446.881317,259.836639 445.917908,249.242386 
	C443.648407,224.285934 417.094452,216.555618 399.806061,230.527328 
	C397.406677,232.466415 396.154449,234.491501 396.193085,237.672302 
	C396.330658,248.992691 396.344147,260.317474 396.170807,271.636993 
	C396.118652,275.042206 397.517670,277.227448 400.047302,279.204285 
	C411.510101,288.162048 426.579376,287.734344 438.036224,277.529144 
z"/>
<path fill="#000000" opacity="1.000000" stroke="none" 
	d="
M297.773193,213.456818 
	C327.179260,209.019394 352.402191,229.181641 346.449646,263.921997 
	C343.373932,281.872467 330.471619,293.828278 312.482971,296.181244 
	C293.133362,298.712219 275.820404,290.452698 268.207794,275.058777 
	C258.100250,254.619675 265.175995,228.587067 283.721985,218.128632 
	C287.954865,215.741638 292.474121,214.102463 297.773193,213.456818 
M314.537415,284.219971 
	C328.747742,279.041595 335.000885,269.133392 334.671326,252.317444 
	C334.236176,230.113113 310.609924,216.492371 291.179688,227.202728 
	C281.812256,232.366257 277.869507,240.973602 276.615784,250.905746 
	C275.182007,262.264221 279.203308,276.920654 292.827026,282.893188 
	C299.601898,285.863159 306.597351,286.488342 314.537415,284.219971 
z"/>
<path fill="#000000" opacity="1.000000" stroke="none" 
	d="
M221.252686,281.059418 
	C210.254257,302.057495 171.331039,301.397583 158.629562,280.790039 
	C157.234497,278.526642 155.868759,276.215332 154.789230,273.792633 
	C150.728592,264.679840 152.071121,262.555756 162.547913,261.404236 
	C164.036453,264.850433 165.423767,268.400299 167.074875,271.822876 
	C172.485382,283.038391 184.470520,286.596710 193.807648,285.420471 
	C205.273834,283.976013 211.456100,277.045746 213.806305,264.962128 
	C214.806320,259.820587 214.769485,254.695572 214.782928,249.548553 
	C214.835602,229.382446 214.792145,209.216095 214.802292,189.049835 
	C214.805359,182.951385 215.014694,182.778839 221.430466,182.790665 
	C227.583282,182.802002 227.974915,183.101791 227.908630,189.295715 
	C227.658951,212.618576 228.648392,235.953201 227.318817,259.264526 
	C226.887939,266.819061 225.127670,274.052368 221.252686,281.059418 
z"/>
<path fill="blue" opacity="1.000000" stroke="none" 
	d="
M71.697952,236.044678 
	C71.566093,223.693970 73.184547,225.464355 61.265430,225.340836 
	C53.845055,225.263947 53.636551,225.035187 53.730824,219.037445 
	C53.781441,215.817444 55.035240,214.593613 58.213310,214.649612 
	C65.037277,214.769882 71.875381,214.908325 78.687309,214.595413 
	C83.023575,214.396194 84.481255,215.760529 84.430428,220.212952 
	C84.215675,239.024078 84.335403,257.839081 84.342270,276.652649 
	C84.344833,283.661621 84.356613,283.662292 91.578613,283.682556 
	C93.243523,283.687225 94.932663,283.868500 96.568794,283.652069 
	C101.330803,283.022217 102.601349,285.247437 102.408127,289.671417 
	C102.262581,293.003906 101.371132,294.429565 97.809357,294.388672 
	C84.824722,294.239594 71.834145,294.168152 58.852669,294.420532 
	C54.290722,294.509277 53.780434,292.344055 53.685921,288.630371 
	C53.580647,284.494202 55.432270,283.646790 59.105179,283.621979 
	C71.705742,283.536774 71.703224,283.431488 71.700096,271.000275 
	C71.697205,259.512360 71.698769,248.024445 71.697952,236.044678 
z"/>
<path fill="pink" opacity="1.000000" stroke="none" 
	d="
M72.326195,182.955078 
	C73.120811,182.866791 73.452934,182.828781 73.783966,182.836685 
	C88.400368,183.185379 86.197159,179.788269 86.308632,196.454819 
	C86.313011,197.109589 86.392632,197.971512 86.033119,198.388550 
	C82.845627,202.085983 78.598480,199.535950 74.865440,200.099823 
	C73.012009,200.379776 70.300217,200.575211 70.007240,197.929825 
	C69.499550,193.345505 69.172966,188.676468 70.292770,184.104538 
	C70.405411,183.644653 71.320511,183.381332 72.326195,182.955078 
z"/>
</svg>